<svg width="50" height="50" viewBox="0 0 50 50" fill="none" xmlns="http://www.w3.org/2000/svg">
<circle cx="25" cy="25" r="25" fill="#85BEDD" fill-opacity="0.42"/>
<path fill-rule="evenodd" clip-rule="evenodd" d="M21.6673 10C22.7784 10 23.8895 10.4222 25.0007 11.2667C26.1118 10.4222 27.2229 10 28.334 10H38.334C39.218 10 40.0659 10.3512 40.691 10.9763C41.3161 11.6014 41.6673 12.4493 41.6673 13.3333V35C41.6673 35.8841 41.3161 36.7319 40.691 37.357C40.0659 37.9821 39.218 38.3333 38.334 38.3333H26.6673C26.6673 39.2533 25.9173 40 25.0007 40C24.084 40 23.334 39.25 23.334 38.3333H11.6673C10.7833 38.3333 9.93542 37.9821 9.31029 37.357C8.68517 36.7319 8.33398 35.8841 8.33398 35V13.3333C8.33398 12.4493 8.68517 11.6014 9.31029 10.9763C9.93542 10.3512 10.7833 10 11.6673 10H21.6673ZM21.6673 13.3333H11.6673V35H23.334V15C23.334 14.0833 22.584 13.3333 21.6673 13.3333ZM38.334 13.3333H28.334C27.4173 13.3333 26.6673 14.0833 26.6673 15V35H38.334V13.3333Z" fill="#0369A1"/>
</svg>
