<svg width="50" height="50" viewBox="0 0 50 50" fill="none" xmlns="http://www.w3.org/2000/svg">
<circle cx="25" cy="25" r="25" fill="#85BEDD" fill-opacity="0.42"/>
<path fill-rule="evenodd" clip-rule="evenodd" d="M23.3324 8.33301C20.9363 8.33327 18.5752 8.90751 16.4467 10.0077C14.3181 11.1078 12.4841 12.7019 11.0981 14.6564C9.71216 16.6109 8.81457 18.869 8.4805 21.2416C8.14643 23.6142 8.3856 26.0324 9.17798 28.2936C9.97037 30.5548 11.2929 32.5933 13.0349 34.2385C14.7769 35.8836 16.8877 37.0875 19.1905 37.7494C21.4933 38.4112 23.9212 38.5118 26.2708 38.0427C28.6205 37.5736 30.8236 36.5484 32.6957 35.053L38.8207 41.178C39.135 41.4816 39.556 41.6496 39.993 41.6458C40.43 41.642 40.848 41.4667 41.1571 41.1577C41.4661 40.8487 41.6414 40.4307 41.6452 39.9937C41.649 39.5567 41.481 39.1357 41.1774 38.8213L35.0524 32.6963C36.8157 30.4894 37.92 27.8295 38.2382 25.0226C38.5564 22.2158 38.0755 19.3761 36.851 16.8305C35.6264 14.2849 33.7079 12.1368 31.3163 10.6335C28.9247 9.13019 26.1572 8.33276 23.3324 8.33301ZM13.3324 23.333C13.3324 22.0198 13.591 20.7194 14.0936 19.5062C14.5961 18.2929 15.3327 17.1905 16.2613 16.2619C17.1899 15.3334 18.2923 14.5968 19.5055 14.0942C20.7188 13.5917 22.0191 13.333 23.3324 13.333C24.6456 13.333 25.9459 13.5917 27.1592 14.0942C28.3725 14.5968 29.4748 15.3334 30.4034 16.2619C31.332 17.1905 32.0686 18.2929 32.5712 19.5062C33.0737 20.7194 33.3324 22.0198 33.3324 23.333C33.3324 25.9852 32.2788 28.5287 30.4034 30.4041C28.5281 32.2794 25.9845 33.333 23.3324 33.333C20.6802 33.333 18.1367 32.2794 16.2613 30.4041C14.3859 28.5287 13.3324 25.9852 13.3324 23.333Z" fill="#0369A1"/>
</svg>
