<svg width="50" height="50" viewBox="0 0 50 50" fill="none" xmlns="http://www.w3.org/2000/svg">
<circle cx="25" cy="25" r="25" fill="#85BEDD" fill-opacity="0.42"/>
<g clip-path="url(#clip0_545_7364)">
<path d="M43.75 37.5H41.25V20C41.5815 20 41.8995 19.8683 42.1339 19.6339C42.3683 19.3995 42.5 19.0815 42.5 18.75C42.5 18.4185 42.3683 18.1005 42.1339 17.8661C41.8995 17.6317 41.5815 17.5 41.25 17.5H33.75V12.5C34.0815 12.5 34.3995 12.3683 34.6339 12.1339C34.8683 11.8995 35 11.5815 35 11.25C35 10.9185 34.8683 10.6005 34.6339 10.3661C34.3995 10.1317 34.0815 10 33.75 10H11.25C10.9185 10 10.6005 10.1317 10.3661 10.3661C10.1317 10.6005 10 10.9185 10 11.25C10 11.5815 10.1317 11.8995 10.3661 12.1339C10.6005 12.3683 10.9185 12.5 11.25 12.5V37.5H8.75C8.41848 37.5 8.10054 37.6317 7.86612 37.8661C7.6317 38.1005 7.5 38.4185 7.5 38.75C7.5 39.0815 7.6317 39.3995 7.86612 39.6339C8.10054 39.8683 8.41848 40 8.75 40H43.75C44.0815 40 44.3995 39.8683 44.6339 39.6339C44.8683 39.3995 45 39.0815 45 38.75C45 38.4185 44.8683 38.1005 44.6339 37.8661C44.3995 37.6317 44.0815 37.5 43.75 37.5ZM38.75 20V37.5H33.75V20H38.75ZM13.75 12.5H31.25V37.5H27.5V30C27.5 29.6685 27.3683 29.3505 27.1339 29.1161C26.8995 28.8817 26.5815 28.75 26.25 28.75H18.75C18.4185 28.75 18.1005 28.8817 17.8661 29.1161C17.6317 29.3505 17.5 29.6685 17.5 30V37.5H13.75V12.5ZM25 37.5H20V31.25H25V37.5ZM16.25 17.5C16.25 17.1685 16.3817 16.8505 16.6161 16.6161C16.8505 16.3817 17.1685 16.25 17.5 16.25H20C20.3315 16.25 20.6495 16.3817 20.8839 16.6161C21.1183 16.8505 21.25 17.1685 21.25 17.5C21.25 17.8315 21.1183 18.1495 20.8839 18.3839C20.6495 18.6183 20.3315 18.75 20 18.75H17.5C17.1685 18.75 16.8505 18.6183 16.6161 18.3839C16.3817 18.1495 16.25 17.8315 16.25 17.5ZM23.75 17.5C23.75 17.1685 23.8817 16.8505 24.1161 16.6161C24.3505 16.3817 24.6685 16.25 25 16.25H27.5C27.8315 16.25 28.1495 16.3817 28.3839 16.6161C28.6183 16.8505 28.75 17.1685 28.75 17.5C28.75 17.8315 28.6183 18.1495 28.3839 18.3839C28.1495 18.6183 27.8315 18.75 27.5 18.75H25C24.6685 18.75 24.3505 18.6183 24.1161 18.3839C23.8817 18.1495 23.75 17.8315 23.75 17.5ZM16.25 23.75C16.25 23.4185 16.3817 23.1005 16.6161 22.8661C16.8505 22.6317 17.1685 22.5 17.5 22.5H20C20.3315 22.5 20.6495 22.6317 20.8839 22.8661C21.1183 23.1005 21.25 23.4185 21.25 23.75C21.25 24.0815 21.1183 24.3995 20.8839 24.6339C20.6495 24.8683 20.3315 25 20 25H17.5C17.1685 25 16.8505 24.8683 16.6161 24.6339C16.3817 24.3995 16.25 24.0815 16.25 23.75ZM23.75 23.75C23.75 23.4185 23.8817 23.1005 24.1161 22.8661C24.3505 22.6317 24.6685 22.5 25 22.5H27.5C27.8315 22.5 28.1495 22.6317 28.3839 22.8661C28.6183 23.1005 28.75 23.4185 28.75 23.75C28.75 24.0815 28.6183 24.3995 28.3839 24.6339C28.1495 24.8683 27.8315 25 27.5 25H25C24.6685 25 24.3505 24.8683 24.1161 24.6339C23.8817 24.3995 23.75 24.0815 23.75 23.75Z" fill="#0369A1"/>
</g>
<defs>
<clipPath id="clip0_545_7364">
<rect width="40" height="40" fill="white" transform="translate(5 5)"/>
</clipPath>
</defs>
</svg>
