<svg width="50" height="50" viewBox="0 0 50 50" fill="none" xmlns="http://www.w3.org/2000/svg">
<circle cx="25" cy="25" r="25" fill="#85BEDD" fill-opacity="0.42"/>
<path fill-rule="evenodd" clip-rule="evenodd" d="M12.8532 35.2352C10.2915 32.4186 9.59149 28.8552 9.90316 25.6719C10.2465 22.1602 11.8482 18.7919 13.9332 17.0536C16.7198 14.7319 19.6465 13.7786 22.1865 13.3119C23.4235 13.1007 24.6691 12.9433 25.9198 12.8402C26.5932 12.7769 27.2748 12.7136 27.9298 12.5502C29.3098 12.2052 30.6715 11.6452 31.7932 10.7552C32.3065 10.3469 32.8265 9.93356 33.5182 10.0102C33.7668 10.0379 34.006 10.1212 34.2181 10.2539C34.4301 10.3866 34.6096 10.5654 34.7432 10.7769C40.0765 19.2219 39.2715 28.1869 34.8165 33.8336C32.5915 36.6519 29.4665 38.6186 25.8215 39.2002C22.6415 39.7052 19.1665 39.1402 15.6648 37.3069C15.3572 38.2632 15.1286 39.2432 14.9815 40.2369C14.9189 40.6745 14.6851 41.0693 14.3315 41.3345C13.9778 41.5998 13.5333 41.7136 13.0957 41.6511C12.6581 41.5885 12.2632 41.3547 11.998 41.001C11.7328 40.6474 11.6189 40.2028 11.6815 39.7652C11.8882 38.3236 12.2815 36.7886 12.8532 35.2352ZM22.7865 16.5902C23.9598 16.3752 25.0615 16.2719 26.1315 16.1669C27.0048 16.0836 27.8848 15.9969 28.7382 15.7836C30.1753 15.4315 31.5516 14.8663 32.8215 14.1069C36.4515 20.9686 35.4382 27.6636 32.1998 31.7702C30.4532 33.9836 28.0515 35.4702 25.2998 35.9069C22.8282 36.3002 19.9665 35.8669 16.9165 34.1969C18.7698 30.4186 21.7998 26.7969 25.7448 24.8252C26.1404 24.6276 26.4414 24.281 26.5814 23.8615C26.7214 23.4421 26.6891 22.9842 26.4915 22.5886C26.2939 22.1929 25.9473 21.892 25.5278 21.752C25.1083 21.612 24.6504 21.6443 24.2548 21.8419C19.9082 24.0152 16.5782 27.7736 14.4132 31.7819C13.3448 30.0319 13.0248 27.9969 13.2215 25.9952C13.5032 23.1152 14.8215 20.6536 16.0665 19.6136C18.2798 17.7686 20.6132 16.9902 22.7882 16.5902H22.7865Z" fill="#0369A1"/>
</svg>
